name D:\school\WTK\thesis\model\3dpredictsim\Results\MidTarsalJoint\Fal_s1_bCst_PF_Natali2010_ls150_MT_k1000000_MTP_T5_ig23.mot
datacolumns 128
datarows 4
range 1.66192038 1.69515879
endheader
time	pelvis_tilt	pelvis_list	pelvis_rotation	pelvis_tx	pelvis_ty	pelvis_tz	hip_flexion_l	hip_adduction_l	hip_rotation_l	hip_flexion_r	hip_adduction_r	hip_rotation_r	knee_angle_l	knee_angle_r	ankle_angle_l	ankle_angle_r	subtalar_angle_l	subtalar_angle_r	mtj_angle_l	mtj_angle_r	mtp_angle_l	mtp_angle_r	lumbar_extension	lumbar_bending	lumbar_rotation	arm_flex_l	arm_add_l	arm_rot_l	arm_flex_r	arm_add_r	arm_rot_r	elbow_flex_l	elbow_flex_r	pro_sup_l	pro_sup_r	glut_med1_l/activation	glut_med2_l/activation	glut_med3_l/activation	glut_min1_l/activation	glut_min2_l/activation	glut_min3_l/activation	semimem_l/activation	semiten_l/activation	bifemlh_l/activation	bifemsh_l/activation	sar_l/activation	add_long_l/activation	add_brev_l/activation	add_mag1_l/activation	add_mag2_l/activation	add_mag3_l/activation	tfl_l/activation	pect_l/activation	grac_l/activation	glut_max1_l/activation	glut_max2_l/activation	glut_max3_l/activation	iliacus_l/activation	psoas_l/activation	quad_fem_l/activation	gem_l/activation	peri_l/activation	rect_fem_l/activation	vas_med_l/activation	vas_int_l/activation	vas_lat_l/activation	med_gas_l/activation	lat_gas_l/activation	soleus_l/activation	tib_post_l/activation	flex_dig_l/activation	flex_hal_l/activation	tib_ant_l/activation	per_brev_l/activation	per_long_l/activation	per_tert_l/activation	ext_dig_l/activation	ext_hal_l/activation	ercspn_l/activation	intobl_l/activation	extobl_l/activation	glut_med1_r/activation	glut_med2_r/activation	glut_med3_r/activation	glut_min1_r/activation	glut_min2_r/activation	glut_min3_r/activation	semimem_r/activation	semiten_r/activation	bifemlh_r/activation	bifemsh_r/activation	sar_r/activation	add_long_r/activation	add_brev_r/activation	add_mag1_r/activation	add_mag2_r/activation	add_mag3_r/activation	tfl_r/activation	pect_r/activation	grac_r/activation	glut_max1_r/activation	glut_max2_r/activation	glut_max3_r/activation	iliacus_r/activation	psoas_r/activation	quad_fem_r/activation	gem_r/activation	peri_r/activation	rect_fem_r/activation	vas_med_r/activation	vas_int_r/activation	vas_lat_r/activation	med_gas_r/activation	lat_gas_r/activation	soleus_r/activation	tib_post_r/activation	flex_dig_r/activation	flex_hal_r/activation	tib_ant_r/activation	per_brev_r/activation	per_long_r/activation	per_tert_r/activation	ext_dig_r/activation	ext_hal_r/activation	ercspn_r/activation	intobl_r/activation	extobl_r/activation	
          1.66192038	         -2.92961964	          1.96786153	         -4.89340740	          2.07740047	          0.91987191	          0.00196768	         29.41641599	          3.37840891	         -2.23979113	        -17.75399491	         -0.90159053	          6.15734873	        -12.55187024	         -5.80570427	          6.33554746	         -0.00457349	         -4.37631202	          7.89320671	         -0.00000442	          0.00160738	         -0.89673770	         21.03541073	         -2.18331767	         -0.29204436	          1.88824296	         -4.11108316	        -13.46349023	          7.98718695	          5.35831974	        -13.45774035	         17.11806528	         15.66338002	         32.37693037	         86.51662706	         86.51662706	          0.05923274	          0.05923271	          0.05000011	          0.05923291	          0.05923288	          0.05000658	          0.10527492	          0.05000272	          0.22264677	          0.05000010	          0.05000023	          0.13820706	          0.31995973	          0.14138438	          0.14955687	          0.11095522	          0.05000011	          0.08313607	          0.07268358	          0.05000029	          0.12033027	          0.16088541	          0.05367943	          0.05000023	          0.17556499	          0.27011068	          0.13067742	          0.05541416	          0.14047614	          0.13598056	          0.12359471	          0.05115134	          0.05144239	          0.05453838	          0.05000001	          0.05000041	          0.05000014	          0.57742444	          0.27339341	          0.16903488	          0.26032537	          0.49705339	          0.23904856	          0.05981615	          0.10715209	          0.10071812	          0.26641728	          0.09848175	          0.07057589	          0.30281868	          0.19388646	          0.10925328	          0.05000061	          0.05000018	          0.05000012	          0.06108806	          0.09863195	          0.10706389	          0.05186273	          0.05000103	          0.05000159	          0.05000058	          0.30895719	          0.09826848	          0.05000111	          0.05000118	          0.05000120	          0.05000109	          0.39158624	          0.64926903	          0.05000038	          0.05000038	          0.05878997	          0.21194565	          0.05004877	          0.05003614	          0.05001370	          0.29044561	          0.40047036	          0.29410346	          0.30043452	          0.31046933	          0.40358352	          0.05000002	          0.05923256	          0.12052699	          0.05000015	          0.05000004	          0.05000014	          0.05000003	          0.05000007	          0.05000008	
          1.67299985	         -2.92492866	          2.06942285	         -5.18084997	          2.09399763	          0.91879592	          0.00176244	         28.81955690	          3.71915435	         -1.99660447	        -17.60498614	         -1.20257917	          5.94093178	        -12.77390891	         -7.76308733	          5.71094446	         -0.74268372	         -4.75473428	          8.78605430	         -0.00005397	          0.00121275	         -0.88203142	         21.95741749	         -1.99235349	         -0.50942948	          1.95031357	         -4.94822702	        -13.46664029	          7.70386399	          5.08284499	        -13.46741656	         17.39200379	         15.29875164	         33.53216557	         86.51662706	         86.51662706	          0.05000001	          0.05000004	          0.10181392	          0.05000005	          0.05000005	          0.05000008	          0.08886531	          0.05000037	          0.18794188	          0.05000039	          0.05167546	          0.11666431	          0.27008673	          0.32238125	          0.21708373	          0.13262023	          0.05000046	          0.07017973	          0.13279979	          0.06569122	          0.11107372	          0.13580775	          0.05000010	          0.05003531	          0.42475086	          0.22800738	          0.11030819	          0.06289615	          0.14369506	          0.15229585	          0.12733172	          0.05000023	          0.05923566	          0.05000003	          0.06959598	          0.05000447	          0.05923356	          0.48741879	          0.32299215	          0.21063939	          0.21974745	          0.43808798	          0.20178706	          0.05049235	          0.09044983	          0.08501875	          0.22488971	          0.08313099	          0.05957495	          0.25561714	          0.16366458	          0.09222354	          0.05000205	          0.05000060	          0.05000077	          0.05156605	          0.08325790	          0.19370212	          0.07754621	          0.07020102	          0.05922938	          0.05923345	          0.26079879	          0.08296824	          0.05000907	          0.05000412	          0.05000260	          0.05000752	          0.33054804	          0.59894146	          0.05000225	          0.05923301	          0.05923246	          0.17890902	          0.15825775	          0.15858196	          0.14781419	          0.24517258	          0.33804731	          0.24826030	          0.26643133	          0.26207562	          0.34067604	          0.05000003	          0.05000009	          0.13464633	          0.05000010	          0.05000003	          0.05000015	          0.05971097	          0.06314739	          0.05321288	
          1.68407932	         -2.91640659	          2.17475266	         -5.44214743	          2.11085658	          0.91776066	          0.00156954	         28.09795545	          3.98083155	         -1.73407825	        -17.37520273	         -1.50244542	          5.71185701	        -13.29756540	         -9.85410426	          5.23061122	         -1.65197217	         -5.15406633	          9.63045871	         -0.00006648	          0.00078255	         -0.94944824	         22.71145933	         -1.78292829	         -0.73690166	          2.00126493	         -5.81249409	        -13.47660930	          7.46838287	          4.73591321	        -13.47553045	         17.59459593	         14.99003539	         34.67570691	         86.51662706	         86.51662706	          0.24046130	          0.23515903	          0.27894692	          0.36242222	          0.23055605	          0.19595070	          0.08930220	          0.05000070	          0.15941211	          0.05195458	          0.05000850	          0.09847937	          0.22798718	          0.27213035	          0.18324606	          0.11653553	          0.05000053	          0.05924109	          0.11209999	          0.13352263	          0.13629065	          0.11463892	          0.05923269	          0.05000086	          0.35854313	          0.19246697	          0.21091670	          0.05309228	          0.12129675	          0.12855690	          0.10748402	          0.05000059	          0.05000248	          0.05052399	          0.05874780	          0.05000034	          0.05000081	          0.57353057	          0.34026935	          0.17780647	          0.32992401	          0.52821953	          0.17033904	          0.06394313	          0.11337320	          0.07176651	          0.31997478	          0.07017302	          0.05028877	          0.31394838	          0.13815353	          0.07784829	          0.05000107	          0.05000020	          0.05000016	          0.05000017	          0.07028033	          0.16350922	          0.07624412	          0.05925869	          0.05000096	          0.05000090	          0.23488530	          0.07237463	          0.05000082	          0.05000137	          0.05000101	          0.05000074	          0.27902416	          0.55957835	          0.05000019	          0.05000070	          0.05000020	          0.15102175	          0.13358970	          0.13386338	          0.12477401	          0.20695645	          0.28535440	          0.20956288	          0.22490162	          0.22122492	          0.28757355	          0.05000001	          0.10222207	          0.15518383	          0.05000010	          0.05000002	          0.05000011	          0.05580972	          0.05330434	          0.05000004	
          1.69515879	         -2.90628520	          2.27311617	         -5.67156988	          2.12776819	          0.91679118	          0.00135283	         27.31732067	          4.22333605	         -1.47433081	        -17.03858851	         -1.79167815	          5.48565739	        -13.77076051	        -12.09856905	          4.80264947	         -2.72676261	         -5.56290835	         10.43006194	         -0.00007746	          0.00038024	         -0.94444187	         23.24536838	         -1.57743510	         -0.96317185	          2.04386380	         -6.65624485	        -13.48686263	          7.28380613	          4.35258179	        -13.48976378	         17.75057776	         14.71163407	         35.78702004	         86.51662706	         86.51662706	          0.32644771	          0.33121094	          0.36237285	          0.30593010	          0.19461887	          0.19240893	          0.07538409	          0.09082044	          0.13456393	          0.07015155	          0.05000051	          0.08312899	          0.19244989	          0.22971253	          0.18116415	          0.16361295	          0.05000025	          0.05000742	          0.11567139	          0.22660891	          0.18879372	          0.16291276	          0.05000009	          0.05000008	          0.30265551	          0.16246637	          0.17804072	          0.05000004	          0.12941814	          0.15809631	          0.11622647	          0.05000002	          0.05000004	          0.05000000	          0.05000000	          0.05000009	          0.05000008	          0.62526408	          0.30694580	          0.16315301	          0.57642284	          0.55335652	          0.29880872	          0.08457887	          0.09570125	          0.06057996	          0.29731903	          0.05923487	          0.05000007	          0.26502670	          0.11661899	          0.06571378	          0.05000198	          0.05000023	          0.05000020	          0.05000016	          0.05932558	          0.17556899	          0.06436328	          0.05002195	          0.05000295	          0.05000413	          0.20193459	          0.06109404	          0.05000093	          0.05000161	          0.05000118	          0.05000100	          0.23553148	          0.51033273	          0.05000018	          0.05000059	          0.05000017	          0.12748136	          0.12536947	          0.12900064	          0.11640603	          0.17469725	          0.24087496	          0.17689739	          0.18984526	          0.18674174	          0.24274830	          0.05000005	          0.11967417	          0.15817191	          0.05000022	          0.05000053	          0.05000024	          0.08346881	          0.05000001	          0.05000003	
